<svg width="32" height="30" viewBox="0 0 32 30" fill="none" xmlns="http://www.w3.org/2000/svg">
<path d="M16 0C7.1634 0 0 5.64812 0 12.6152C0 17.1196 2.9948 21.072 7.4997 23.3039C7.2546 24.1491 5.9248 28.7413 5.8718 29.1021C5.8718 29.1021 5.84 29.3731 6.0155 29.4765C6.1911 29.5799 6.3975 29.4996 6.3975 29.4996C6.9009 29.4293 12.2349 25.6825 13.1582 25.0319C14.0805 25.1625 15.0302 25.2304 16 25.2304C24.8366 25.2304 32 19.5825 32 12.6152C32 5.64812 24.8366 0 16 0Z" fill="#381F1F"/>
<path fill-rule="evenodd" clip-rule="evenodd" d="M7.15399 17.0186C6.64489 17.0186 6.23088 16.6232 6.23088 16.137V10.6533H4.79057C4.29107 10.6533 3.88477 10.2478 3.88477 9.74948C3.88477 9.25119 4.29117 8.8457 4.79057 8.8457H9.51741C10.0169 8.8457 10.4232 9.25119 10.4232 9.74948C10.4232 10.2478 10.0168 10.6533 9.51741 10.6533H8.0771V16.137C8.0771 16.6232 7.6631 17.0186 7.15399 17.0186ZM15.2481 17.0059C14.8632 17.0059 14.5688 16.8496 14.48 16.5982L14.0229 15.4017L11.2081 15.4015L10.7508 16.5988C10.6623 16.8497 10.368 17.0059 9.98307 17.0059C9.78057 17.0061 9.58037 16.9626 9.39627 16.8785C9.14177 16.7611 8.89717 16.4383 9.17747 15.5678L11.3855 9.75671C11.5411 9.31475 12.0135 8.8594 12.6148 8.8457C13.2177 8.8593 13.6901 9.31475 13.846 9.75761L16.0531 15.5661C16.334 16.4386 16.0894 16.7616 15.8349 16.8786C15.6507 16.9626 15.4506 17.006 15.2481 17.0059ZM12.6155 11.1484L13.5375 13.7676H11.6935L12.6155 11.1484ZM17.5385 16.8838C17.0506 16.8838 16.6539 16.5041 16.6539 16.0376V9.76876C16.6539 9.25968 17.0766 8.8457 17.5962 8.8457C18.1157 8.8457 18.5385 9.25968 18.5385 9.76876V15.1915H20.5001C20.988 15.1915 21.3848 15.5712 21.3848 16.0376C21.3848 16.5041 20.988 16.8838 20.5001 16.8838H17.5385ZM21.7438 16.0829C21.7438 16.5919 22.1578 17.0059 22.6669 17.0059C22.9117 17.0055 23.1464 16.9081 23.3195 16.735C23.4926 16.5619 23.59 16.3272 23.5903 16.0824V14.0686L23.9106 13.7483L26.0754 16.6163C26.1611 16.7308 26.2724 16.8236 26.4005 16.8874C26.5285 16.9511 26.6697 16.9839 26.8127 16.9833C27.0133 16.9837 27.2084 16.9183 27.368 16.7969C27.465 16.7242 27.5466 16.633 27.6081 16.5285C27.6695 16.424 27.7097 16.3083 27.7261 16.1883C27.7434 16.0682 27.7366 15.946 27.7061 15.8286C27.6757 15.7112 27.6223 15.601 27.5489 15.5044L25.2767 12.4947L27.3803 10.3916C27.5249 10.2469 27.5974 10.0474 27.584 9.82969C27.5707 9.61391 27.4743 9.40614 27.3126 9.24456C27.1392 9.07138 26.9078 8.97199 26.6774 8.97199C26.4798 8.97199 26.2978 9.04488 26.1654 9.17736L23.59 11.7525V9.7687C23.59 9.25966 23.176 8.8457 22.6669 8.8457C22.1578 8.8457 21.7438 9.25966 21.7438 9.7687V16.0829Z" fill="#FFE812"/>
</svg>
